# xmcd
#
# Track frame offsets:
#	150
#	25129
#	95109
#	128413
#	172667
#	258547
#	312626
#
# Disc length: 4429 seconds
#
# Revision: 1
# Processed by: cddbd v1.5.2PL0 Copyright (c) Steve Scherf et al.
# Submitted via: audiograbber 1.83.01
#
DISCID=55114b07
DTITLE=Micky and The Hartbeats - 68-10-08 The Matrix, San Francisco CA
DYEAR=1900
DGENRE=
TTITLE0=Clementine Jam
TTITLE1=Clementine Jam
TTITLE2=The Eleven Jam
TTITLE3=Death Don't Have No Mercy
TTITLE4=The Seven
TTITLE5=Dark Star Jam
TTITLE6=Cosmic Charlie
EXTD=
EXTT0=
EXTT1=
EXTT2=
EXTT3=
EXTT4=
EXTT5=
EXTT6=
PLAYORDER=
